<svg width="163" height="124" viewBox="0 0 163 124" fill="none" xmlns="http://www.w3.org/2000/svg">
<g clip-path="url(#clip0_9_22228)">
<mask id="mask0_9_22228" style="mask-type:luminance" maskUnits="userSpaceOnUse" x="2" y="0" width="159" height="86">
<path d="M160.806 0H2.20312V85.9076H160.806V0Z" fill="white"/>
</mask>
<g mask="url(#mask0_9_22228)">
<path d="M137.002 39.4724C136.927 21.5702 121.743 7.07761 103.02 7.07761C96.2404 7.07761 89.9267 8.97981 84.6201 12.253C78.4041 4.7878 68.8132 0 58.0573 0C39.2889 0 24.0758 14.5644 24.0758 32.5312C24.0758 34.9287 24.3539 37.2687 24.865 39.5227C12.2074 40.3122 2.20312 50.3759 2.20312 62.6936C2.20312 75.0112 13.0643 85.9148 26.4585 85.9148H136.551C149.945 85.9148 160.806 75.5209 160.806 62.6936C160.806 49.8663 150.193 39.7165 137.002 39.4796V39.4724Z" fill="url(#paint0_linear_9_22228)"/>
<path d="M119.173 35.1441L97.0001 32.4164L82.2079 44.2747L70.1216 32.1006L56 37L47.5 29.5L41.7071 35.9529L54.5 47L41.0858 56.2836L39.9434 74.638L52.7362 85.7641L53.097 85.8933H136.371C146.067 85.8933 154.425 80.4451 158.311 72.5779L119.173 35.1513V35.1441Z" fill="url(#paint1_linear_9_22228)" fill-opacity="0.3" style="mix-blend-mode:multiply"/>
</g>
<mask id="mask1_9_22228" style="mask-type:luminance" maskUnits="userSpaceOnUse" x="40" y="27" width="86" height="48">
<path d="M125.299 27.125H40.0781V74.601H125.299V27.125Z" fill="white"/>
</mask>
<g mask="url(#mask1_9_22228)">
<path d="M71.5416 48.3578C72.857 46.2331 73.526 43.7639 73.526 40.9787C73.3606 33.212 67.0694 27.125 59.1998 27.125H51.1648V38.0573H59.1998C60.9285 38.0573 62.3867 39.4713 62.3867 41.1438C62.3867 42.8163 60.9586 44.3237 59.1998 44.3237H40.0781V74.5938H61.1164C69.5949 74.5938 76.4949 67.7962 76.4949 59.4337C76.4949 55.2416 74.6685 51.2075 71.5416 48.3507V48.3578ZM61.1164 63.5682H51.1648V55.2704H61.1164C63.454 55.2704 65.3632 57.1438 65.3632 59.448C65.3632 61.7522 63.4991 63.5754 61.1164 63.5754V63.5682Z" fill="white"/>
<path d="M121.593 63.5096L122.314 62.4041L114.031 54.2426L112.979 56.1664C112.197 57.5948 111.295 58.8007 110.221 59.8631C109.845 60.2363 109.003 61.0044 107.567 61.9734C106.462 62.7271 104.876 63.2727 102.975 63.567C98.9386 64.1628 94.9323 62.842 91.9859 59.9349C86.9274 54.9461 86.9274 46.8276 91.9859 41.8389C97.0519 36.8501 105.267 36.8285 110.311 41.803L111.483 42.9586L119.33 35.2206L118.158 34.065C108.755 24.798 93.4666 24.7909 84.0787 34.0434C74.6907 43.296 74.7133 58.3772 84.1313 67.6657C89.3101 72.7693 96.4582 75.2817 103.726 74.5423C106.057 74.3341 108.349 73.7527 110.499 72.8339C114.73 71.1255 117.045 68.8285 118.038 67.8595L118.113 67.7877C119.376 66.5459 120.541 65.1103 121.578 63.5167L121.593 63.5096Z" fill="white"/>
</g>
<circle cx="101.5" cy="50.5" r="4.5" fill="white"/>
<circle cx="44.5" cy="32.5" r="4.5" fill="white"/>
<path d="M12.879 104.674C13.6763 104.904 14.328 105.356 14.834 106.031C15.3553 106.69 15.616 107.449 15.616 108.308C15.616 109.795 15.1023 110.953 14.075 111.781C13.0477 112.594 11.5987 113 9.728 113H3.748V96.9H9.498C11.154 96.9 12.465 97.3063 13.431 98.119C14.397 98.9163 14.88 99.9973 14.88 101.362C14.88 102.144 14.7037 102.826 14.351 103.409C13.9983 103.992 13.5077 104.413 12.879 104.674ZM11.292 101.362C11.292 100.657 11.0697 100.143 10.625 99.821C10.1957 99.499 9.51333 99.338 8.578 99.338H7.29V103.57H8.509C9.475 103.57 10.1803 103.394 10.625 103.041C11.0697 102.688 11.292 102.129 11.292 101.362ZM9.038 110.562C9.83533 110.562 10.441 110.501 10.855 110.378C11.2843 110.24 11.5833 110.01 11.752 109.688C11.936 109.366 12.028 108.906 12.028 108.308C12.028 107.465 11.798 106.874 11.338 106.537C10.8933 106.184 10.1113 106.008 8.992 106.008H7.29V110.562H9.038ZM29.186 109.941C29.186 110.646 29.209 111.198 29.255 111.597C29.3163 111.996 29.4083 112.333 29.531 112.609C29.2243 112.762 28.8563 112.885 28.427 112.977C27.9977 113.069 27.5913 113.115 27.208 113.115C26.7633 113.115 26.4337 113.008 26.219 112.793C26.0043 112.578 25.8663 112.218 25.805 111.712C25.3603 112.203 24.816 112.578 24.172 112.839C23.5433 113.1 22.8533 113.23 22.102 113.23C20.768 113.23 19.7483 112.87 19.043 112.149C18.3377 111.413 17.985 110.355 17.985 108.975V100.35H21.389V108.814C21.389 109.627 21.5117 110.209 21.757 110.562C22.0177 110.899 22.4547 111.068 23.068 111.068C24.1567 111.068 25.0537 110.516 25.759 109.412V100.35H29.186V109.941ZM36.4973 113.23C34.9946 113.23 33.8063 113 32.9323 112.54C32.0736 112.08 31.6443 111.49 31.6443 110.769C31.6443 110.34 31.79 109.979 32.0813 109.688C32.388 109.381 32.825 109.213 33.3923 109.182C33.7143 109.795 34.1283 110.255 34.6343 110.562C35.1556 110.869 35.8073 111.022 36.5893 111.022C37.9386 111.022 38.6133 110.516 38.6133 109.504C38.6133 109.09 38.4216 108.776 38.0383 108.561C37.655 108.346 37.0263 108.093 36.1523 107.802C35.263 107.511 34.527 107.227 33.9443 106.951C33.377 106.675 32.8863 106.276 32.4723 105.755C32.0583 105.218 31.8513 104.528 31.8513 103.685C31.8513 102.964 32.0736 102.336 32.5183 101.799C32.9783 101.247 33.5763 100.833 34.3123 100.557C35.0636 100.266 35.8763 100.12 36.7503 100.12C37.8696 100.12 38.851 100.335 39.6943 100.764C40.5376 101.193 41.197 101.768 41.6723 102.489C41.473 102.872 41.197 103.21 40.8443 103.501C40.507 103.777 40.2003 103.915 39.9243 103.915C39.771 103.915 39.6406 103.892 39.5333 103.846C39.426 103.785 39.3186 103.693 39.2113 103.57C38.5213 102.711 37.7316 102.282 36.8423 102.282C36.2596 102.282 35.8073 102.397 35.4853 102.627C35.1786 102.842 35.0253 103.171 35.0253 103.616C35.0253 104.091 35.2323 104.452 35.6463 104.697C36.0756 104.942 36.7426 105.195 37.6473 105.456C38.506 105.686 39.2113 105.931 39.7633 106.192C40.3306 106.437 40.806 106.813 41.1893 107.319C41.588 107.81 41.7873 108.461 41.7873 109.274C41.7873 110.547 41.3273 111.528 40.4073 112.218C39.5026 112.893 38.1993 113.23 36.4973 113.23ZM44.0846 100.35H47.4886V113H44.0846V100.35ZM45.6256 98.027C44.4296 98.027 43.8316 97.429 43.8316 96.233V95.888C43.8316 94.692 44.4296 94.094 45.6256 94.094H45.9476C47.1436 94.094 47.7416 94.692 47.7416 95.888V96.233C47.7416 97.429 47.1436 98.027 45.9476 98.027H45.6256ZM61.5206 109.826C61.5206 110.593 61.5513 111.168 61.6126 111.551C61.6739 111.934 61.7889 112.287 61.9576 112.609C61.0529 112.946 60.1176 113.115 59.1516 113.115C58.7683 113.115 58.4999 112.931 58.3466 112.563C58.1933 112.195 58.1166 111.559 58.1166 110.654V104.651C58.1166 103.854 57.9939 103.302 57.7486 102.995C57.5186 102.673 57.1046 102.512 56.5066 102.512C55.7093 102.512 54.8353 102.903 53.8846 103.685V113H50.4806V104.49C50.4806 103.463 50.4576 102.673 50.4116 102.121C50.3809 101.569 50.3119 101.124 50.2046 100.787C51.3393 100.434 52.2669 100.258 52.9876 100.258C53.3096 100.258 53.5396 100.365 53.6776 100.58C53.8156 100.779 53.8846 101.117 53.8846 101.592V101.868C54.6666 101.209 55.3259 100.756 55.8626 100.511C56.4146 100.25 56.9896 100.12 57.5876 100.12C58.9063 100.12 59.8876 100.48 60.5316 101.201C61.1909 101.906 61.5206 102.987 61.5206 104.444V109.826ZM75.7887 105.847C75.7887 106.062 75.7503 106.545 75.6737 107.296H67.5317C67.6083 108.461 67.8843 109.366 68.3597 110.01C68.8503 110.654 69.4867 110.976 70.2687 110.976C70.6213 110.976 70.9127 110.93 71.1427 110.838C71.388 110.746 71.6333 110.585 71.8787 110.355C72.1393 110.11 72.4767 109.719 72.8907 109.182C72.9673 109.059 73.1283 108.998 73.3737 108.998C73.6343 108.998 73.9487 109.09 74.3167 109.274C74.7 109.443 75.1063 109.688 75.5357 110.01C74.539 112.157 72.7833 113.23 70.2687 113.23C68.3367 113.23 66.8187 112.647 65.7147 111.482C64.6107 110.301 64.0587 108.691 64.0587 106.652C64.0587 105.318 64.304 104.16 64.7947 103.179C65.3007 102.198 66.0137 101.446 66.9337 100.925C67.869 100.388 68.973 100.12 70.2457 100.12C72.009 100.12 73.3737 100.618 74.3397 101.615C75.3057 102.612 75.7887 104.022 75.7887 105.847ZM72.3387 105.364C72.3387 103.309 71.618 102.282 70.1767 102.282C69.4407 102.282 68.8503 102.543 68.4057 103.064C67.961 103.585 67.685 104.352 67.5777 105.364H72.3387ZM82.1155 113.23C80.6128 113.23 79.4245 113 78.5505 112.54C77.6918 112.08 77.2625 111.49 77.2625 110.769C77.2625 110.34 77.4081 109.979 77.6995 109.688C78.0061 109.381 78.4431 109.213 79.0105 109.182C79.3325 109.795 79.7465 110.255 80.2525 110.562C80.7738 110.869 81.4255 111.022 82.2075 111.022C83.5568 111.022 84.2315 110.516 84.2315 109.504C84.2315 109.09 84.0398 108.776 83.6565 108.561C83.2731 108.346 82.6445 108.093 81.7705 107.802C80.8811 107.511 80.1451 107.227 79.5625 106.951C78.9951 106.675 78.5045 106.276 78.0905 105.755C77.6765 105.218 77.4695 104.528 77.4695 103.685C77.4695 102.964 77.6918 102.336 78.1365 101.799C78.5965 101.247 79.1945 100.833 79.9305 100.557C80.6818 100.266 81.4945 100.12 82.3685 100.12C83.4878 100.12 84.4691 100.335 85.3125 100.764C86.1558 101.193 86.8151 101.768 87.2905 102.489C87.0911 102.872 86.8151 103.21 86.4625 103.501C86.1251 103.777 85.8185 103.915 85.5425 103.915C85.3891 103.915 85.2588 103.892 85.1515 103.846C85.0441 103.785 84.9368 103.693 84.8295 103.57C84.1395 102.711 83.3498 102.282 82.4605 102.282C81.8778 102.282 81.4255 102.397 81.1035 102.627C80.7968 102.842 80.6435 103.171 80.6435 103.616C80.6435 104.091 80.8505 104.452 81.2645 104.697C81.6938 104.942 82.3608 105.195 83.2655 105.456C84.1241 105.686 84.8295 105.931 85.3815 106.192C85.9488 106.437 86.4241 106.813 86.8075 107.319C87.2061 107.81 87.4055 108.461 87.4055 109.274C87.4055 110.547 86.9455 111.528 86.0255 112.218C85.1208 112.893 83.8175 113.23 82.1155 113.23ZM93.7278 113.23C92.2251 113.23 91.0368 113 90.1628 112.54C89.3041 112.08 88.8748 111.49 88.8748 110.769C88.8748 110.34 89.0204 109.979 89.3118 109.688C89.6184 109.381 90.0554 109.213 90.6228 109.182C90.9448 109.795 91.3588 110.255 91.8648 110.562C92.3861 110.869 93.0378 111.022 93.8198 111.022C95.1691 111.022 95.8438 110.516 95.8438 109.504C95.8438 109.09 95.6521 108.776 95.2688 108.561C94.8854 108.346 94.2568 108.093 93.3828 107.802C92.4934 107.511 91.7574 107.227 91.1748 106.951C90.6074 106.675 90.1168 106.276 89.7028 105.755C89.2888 105.218 89.0818 104.528 89.0818 103.685C89.0818 102.964 89.3041 102.336 89.7488 101.799C90.2088 101.247 90.8068 100.833 91.5428 100.557C92.2941 100.266 93.1068 100.12 93.9808 100.12C95.1001 100.12 96.0814 100.335 96.9248 100.764C97.7681 101.193 98.4274 101.768 98.9028 102.489C98.7034 102.872 98.4274 103.21 98.0748 103.501C97.7374 103.777 97.4308 103.915 97.1548 103.915C97.0014 103.915 96.8711 103.892 96.7638 103.846C96.6564 103.785 96.5491 103.693 96.4418 103.57C95.7518 102.711 94.9621 102.282 94.0728 102.282C93.4901 102.282 93.0378 102.397 92.7158 102.627C92.4091 102.842 92.2558 103.171 92.2558 103.616C92.2558 104.091 92.4628 104.452 92.8768 104.697C93.3061 104.942 93.9731 105.195 94.8778 105.456C95.7364 105.686 96.4418 105.931 96.9938 106.192C97.5611 106.437 98.0364 106.813 98.4198 107.319C98.8184 107.81 99.0178 108.461 99.0178 109.274C99.0178 110.547 98.5578 111.528 97.6378 112.218C96.7331 112.893 95.4298 113.23 93.7278 113.23ZM113.731 113.23C111.538 113.23 109.836 112.509 108.625 111.068C107.429 109.627 106.831 107.587 106.831 104.95C106.831 102.297 107.429 100.258 108.625 98.832C109.821 97.3907 111.523 96.67 113.731 96.67C114.62 96.67 115.448 96.8233 116.215 97.13C116.981 97.4213 117.641 97.8583 118.193 98.441C118.101 98.7323 117.97 98.9547 117.802 99.108C117.633 99.2613 117.441 99.338 117.227 99.338C117.012 99.338 116.813 99.269 116.629 99.131C115.801 98.487 114.819 98.165 113.685 98.165C111.998 98.165 110.718 98.74 109.844 99.89C108.97 101.04 108.533 102.727 108.533 104.95C108.533 107.158 108.97 108.837 109.844 109.987C110.718 111.137 111.998 111.712 113.685 111.712C114.405 111.712 115.049 111.612 115.617 111.413C116.199 111.214 116.774 110.884 117.342 110.424C117.541 110.439 117.71 110.524 117.848 110.677C117.986 110.815 118.055 110.991 118.055 111.206C118.055 111.559 117.848 111.888 117.434 112.195C117.035 112.502 116.498 112.755 115.824 112.954C115.164 113.138 114.467 113.23 113.731 113.23ZM121.636 94.807H123.2V113H121.636V94.807ZM131.792 113.23C130.014 113.23 128.672 112.678 127.767 111.574C126.863 110.47 126.41 108.829 126.41 106.652C126.41 102.297 128.204 100.12 131.792 100.12C135.38 100.12 137.174 102.297 137.174 106.652C137.174 108.829 136.722 110.47 135.817 111.574C134.913 112.678 133.571 113.23 131.792 113.23ZM131.792 111.942C133.096 111.942 134.046 111.52 134.644 110.677C135.258 109.818 135.564 108.477 135.564 106.652C135.564 104.843 135.258 103.516 134.644 102.673C134.046 101.83 133.096 101.408 131.792 101.408C130.489 101.408 129.531 101.83 128.917 102.673C128.319 103.516 128.02 104.843 128.02 106.652C128.02 108.477 128.319 109.818 128.917 110.677C129.531 111.52 130.489 111.942 131.792 111.942ZM144.899 113.23C143.043 113.23 141.594 112.647 140.552 111.482C139.524 110.317 139.011 108.691 139.011 106.606C139.011 105.287 139.241 104.145 139.701 103.179C140.176 102.198 140.851 101.446 141.725 100.925C142.599 100.388 143.626 100.12 144.807 100.12C146.217 100.12 147.375 100.48 148.28 101.201C149.2 101.906 149.736 102.872 149.89 104.099C149.752 104.16 149.56 104.222 149.315 104.283C149.085 104.344 148.893 104.375 148.74 104.375C148.586 104.375 148.471 104.337 148.395 104.26C148.333 104.168 148.264 103.984 148.188 103.708C148.019 102.987 147.636 102.428 147.038 102.029C146.44 101.615 145.696 101.408 144.807 101.408C143.979 101.408 143.243 101.623 142.599 102.052C141.97 102.481 141.479 103.095 141.127 103.892C140.789 104.674 140.621 105.579 140.621 106.606C140.621 108.231 141.004 109.527 141.771 110.493C142.553 111.459 143.595 111.942 144.899 111.942C145.895 111.942 146.746 111.712 147.452 111.252C148.157 110.777 148.686 110.087 149.039 109.182C149.253 109.182 149.43 109.274 149.568 109.458C149.721 109.642 149.798 109.857 149.798 110.102C149.798 110.639 149.568 111.152 149.108 111.643C148.663 112.118 148.057 112.502 147.291 112.793C146.539 113.084 145.742 113.23 144.899 113.23ZM162.926 113C162.665 113 162.366 113.015 162.029 113.046C161.753 113.077 161.584 113.092 161.523 113.092C161.231 113.092 161.009 112.969 160.856 112.724L157.889 107.94C157.444 107.219 156.639 106.882 155.474 106.928L154.416 106.974V113H152.852V94.807H154.416V105.548L155.313 105.525C155.635 105.51 155.911 105.448 156.141 105.341C156.371 105.218 156.578 105.034 156.762 104.789L160.212 100.35H162.144L158.05 105.364C158.019 105.395 157.95 105.479 157.843 105.617C157.735 105.74 157.597 105.847 157.429 105.939C158.18 106.138 158.724 106.506 159.062 107.043L162.926 113Z" fill="#363C60"/>
</g>
<defs>
<linearGradient id="paint0_linear_9_22228" x1="25" y1="9.5" x2="136.425" y2="120.33" gradientUnits="userSpaceOnUse">
<stop stop-color="#FFB13C"/>
<stop offset="1" stop-color="#F68A3B"/>
</linearGradient>
<linearGradient id="paint1_linear_9_22228" x1="100.285" y1="82.0243" x2="95.1291" y2="40.9042" gradientUnits="userSpaceOnUse">
<stop stop-color="#550AF4" stop-opacity="0"/>
<stop offset="1" stop-color="#971FF5"/>
</linearGradient>
<clipPath id="clip0_9_22228">
<rect width="163" height="124" fill="white"/>
</clipPath>
</defs>
</svg>
